<svg width="60" height="53" viewBox="0 0 60 53" fill="none" xmlns="http://www.w3.org/2000/svg">
<path d="M45.0752 35.7632H21.9951L17.2552 39.3179L12.5152 35.7632H2.53125V38.2007C2.53125 41.3075 4.97406 43.8384 7.99491 43.8882C8.27584 45.4238 8.95562 46.8112 9.97876 47.8969C11.4921 49.5026 13.6921 50.3882 16.1731 50.3882H31.4334C33.9144 50.3882 36.1144 49.5026 37.6277 47.8948C38.6509 46.8091 39.3306 45.4218 39.6116 43.8862C41.2162 43.8608 42.6579 43.1346 43.6579 41.994C44.5918 40.9007 45.09 39.5676 45.0752 38.2007V35.7632Z" fill="#5F4C41"/>
<path d="M12.8204 32.5132L17.2517 35.3762L21.7223 32.5132H45.0752V31.7007C45.0739 30.7645 44.7053 29.8574 44.0314 29.1321C43.3575 28.4069 42.4196 27.908 41.3758 27.7194C41.281 24.704 39.8728 22.1802 37.2705 20.4069C34.8635 18.7576 31.6473 17.8882 27.9652 17.8882H19.6413C11.7545 17.8882 6.41223 21.8258 6.23073 27.7194C5.18691 27.908 4.24901 28.4069 3.57511 29.1321C2.90122 29.8574 2.53255 30.7645 2.53125 31.7007V32.5132H12.8204Z" fill="#5F4C41"/>
<path d="M54.218 9.76318H45.5947L46.626 6.14146L51.7809 4.5835L50.6249 1.63818L43.4571 3.66943L41.7819 9.76318H24.7285V13.0132H26.8962L27.1112 14.6382H27.9656C32.4743 14.6382 36.4813 15.7452 39.5403 17.8394C41.2418 18.9911 42.621 20.4693 43.5727 22.1609C44.1592 23.2104 44.5767 24.3264 44.8132 25.4769C46.5359 26.4087 47.8134 27.8598 48.4068 29.5589C49.0002 31.2579 48.8689 33.0887 48.0375 34.709C48.5246 35.8234 48.7747 37.0069 48.7751 38.2007C48.7751 40.4696 47.8965 42.6319 46.3011 44.2894C45.3138 45.3226 44.0491 46.1237 42.6213 46.6202C42.1347 47.8384 41.4097 48.9726 40.479 49.9718C40.3426 50.116 40.2027 50.2572 40.0594 50.3933H48.7751C50.6249 50.3933 51.4341 49.5808 51.6653 48.0573L55.8735 13.0183H58.0238V9.76318H54.218Z" fill="#5F4C41"/>
</svg>
