<svg width="54" height="51" viewBox="0 0 54 51" fill="none" xmlns="http://www.w3.org/2000/svg">
<path d="M26.7526 0.0593262C12.0362 0.0593262 0.108887 11.299 0.108887 25.1642C0.108522 28.4615 0.797433 31.7265 2.13627 34.7729C3.47511 37.8192 5.43766 40.5872 7.91182 42.9187C10.386 45.2502 13.3233 47.0996 16.556 48.3613C19.7888 49.6229 23.2536 50.2721 26.7526 50.2718C41.4633 50.2718 53.3934 39.0321 53.3934 25.1642C53.3934 11.299 41.4633 0.0593262 26.7526 0.0593262ZM29.239 9.12324C31.8365 9.12324 32.5997 10.5432 32.5997 12.1672C32.5997 14.1939 30.8791 16.0689 27.9403 16.0689C25.4816 16.0689 24.3105 14.9052 24.3826 12.9779C24.3826 11.3539 25.8229 9.12324 29.239 9.12324ZM22.5844 40.201C20.8083 40.201 19.5123 39.1838 20.7528 34.725L22.7869 26.8144C23.1394 25.5487 23.1977 25.0413 22.7869 25.0413C22.2569 25.0413 19.9508 25.9148 18.591 26.7777L17.7058 25.4101C22.021 22.013 26.9829 20.0203 29.1058 20.0203C30.8819 20.0203 31.1761 21.9974 30.2908 25.0413L27.9597 33.3573C27.5462 34.827 27.7238 35.3343 28.1373 35.3343C28.6701 35.3343 30.4129 34.7276 32.1279 33.4541L33.1325 34.725C28.9338 38.679 24.3577 40.201 22.5844 40.201Z" fill="#5F4C41"/>
</svg>
