<svg width="52" height="48" viewBox="0 0 52 48" fill="none" xmlns="http://www.w3.org/2000/svg">
<path d="M26.0511 0C11.9201 0 0.401367 9.85636 0.401367 21.9481C0.401367 29.7683 5.23535 36.6296 12.4646 40.5195H12.2397L8.29358 47.2727H43.8086L39.8625 40.5195H39.6375C46.8668 36.6296 51.7008 29.7683 51.7008 21.9481C51.7008 9.85636 40.1821 0 26.0511 0ZM25.5578 5.0852V16.9034C24.331 16.9914 23.1668 17.4045 22.2273 18.0852L12.4646 9.72468C16.0005 6.83514 20.6698 5.1794 25.5578 5.08182V5.0852ZM26.5443 5.0852C31.6348 5.19325 36.2123 6.94234 39.6375 9.72805L29.8788 18.0852L29.8709 18.0784C28.9325 17.4015 27.7714 16.9908 26.5483 16.9034V5.0852H26.5443ZM11.7701 10.319L21.5367 18.6761L21.5288 18.6829C20.7377 19.4858 20.2578 20.4794 20.1556 21.526H6.34421C6.47048 17.1701 8.51457 13.2532 11.7701 10.3223V10.319ZM40.332 10.319C43.7098 13.3454 45.6449 17.3422 45.7579 21.526H31.9466C31.8437 20.4762 31.3609 19.48 30.5654 18.6761L40.332 10.3223V10.319ZM6.34421 22.3735H20.1556C20.2584 23.4232 20.7412 24.4194 21.5367 25.2234L11.7662 33.5738C8.38929 30.5482 6.4543 26.5527 6.34026 22.3701L6.34421 22.3735ZM31.9466 22.3735H45.7579C45.6439 26.5561 43.7089 30.5516 40.332 33.5771L30.5694 25.2234C30.5694 25.2234 30.5694 25.2166 30.5773 25.2166C31.367 24.4132 31.8455 23.4197 31.9466 22.3735ZM22.2273 25.8177C22.2273 25.8177 22.2352 25.8177 22.2352 25.8244C22.7822 26.2127 23.4064 26.5135 24.078 26.7125V38.7434C19.7178 38.3702 15.6293 36.7582 12.4646 34.1647L22.2233 25.8143L22.2273 25.8177ZM29.8749 25.8177L39.6375 34.1714C36.4723 36.7637 32.3838 38.3745 28.0241 38.7468V26.7158C28.6999 26.5125 29.327 26.2059 29.8749 25.8109V25.8177Z" fill="#5F4C41"/>
</svg>
