<svg width="60" height="60" viewBox="0 0 60 60" fill="none" xmlns="http://www.w3.org/2000/svg">
<g clip-path="url(#clip0)">
<path fill-rule="evenodd" clip-rule="evenodd" d="M60 30C60 37.9565 56.8393 45.5871 51.2132 51.2132C45.5871 56.8393 37.9565 60 30 60C22.0435 60 14.4129 56.8393 8.7868 51.2132C3.16071 45.5871 0 37.9565 0 30C0 22.0435 3.16071 14.4129 8.7868 8.7868C14.4129 3.16071 22.0435 0 30 0C37.9565 0 45.5871 3.16071 51.2132 8.7868C56.8393 14.4129 60 22.0435 60 30V30ZM31.3275 39.9225C31.6796 40.2746 31.8774 40.7521 31.8774 41.25C31.8774 41.7479 31.6796 42.2254 31.3275 42.5775C30.9754 42.9296 30.4979 43.1274 30 43.1274C29.5021 43.1274 29.0246 42.9296 28.6725 42.5775L17.4225 31.3275C17.2479 31.1533 17.1094 30.9464 17.0148 30.7186C16.9203 30.4908 16.8717 30.2466 16.8717 30C16.8717 29.7534 16.9203 29.5092 17.0148 29.2814C17.1094 29.0536 17.2479 28.8467 17.4225 28.6725L28.6725 17.4225C28.8468 17.2482 29.0538 17.1099 29.2816 17.0155C29.5093 16.9212 29.7535 16.8726 30 16.8726C30.2465 16.8726 30.4907 16.9212 30.7184 17.0155C30.9462 17.1099 31.1532 17.2482 31.3275 17.4225C31.5018 17.5968 31.6401 17.8038 31.7345 18.0316C31.8288 18.2593 31.8774 18.5035 31.8774 18.75C31.8774 18.9965 31.8288 19.2407 31.7345 19.4684C31.6401 19.6962 31.5018 19.9032 31.3275 20.0775L23.2763 28.125H41.25C41.7473 28.125 42.2242 28.3226 42.5758 28.6742C42.9275 29.0258 43.125 29.5027 43.125 30C43.125 30.4973 42.9275 30.9742 42.5758 31.3258C42.2242 31.6775 41.7473 31.875 41.25 31.875H23.2763L31.3275 39.9225Z" fill="#4FF77E"/>
<path fill-rule="evenodd" clip-rule="evenodd" d="M30 3.75C23.0381 3.75 16.3613 6.51562 11.4384 11.4384C6.51562 16.3613 3.75 23.0381 3.75 30C3.75 36.9619 6.51562 43.6387 11.4384 48.5616C16.3613 53.4844 23.0381 56.25 30 56.25C36.9619 56.25 43.6387 53.4844 48.5616 48.5616C53.4844 43.6387 56.25 36.9619 56.25 30C56.25 23.0381 53.4844 16.3613 48.5616 11.4384C43.6387 6.51562 36.9619 3.75 30 3.75V3.75ZM30 0C22.0435 0 14.4129 3.1607 8.7868 8.7868C3.1607 14.4129 0 22.0435 0 30C0 37.9565 3.1607 45.5871 8.7868 51.2132C14.4129 56.8393 22.0435 60 30 60C37.9565 60 45.5871 56.8393 51.2132 51.2132C56.8393 45.5871 60 37.9565 60 30C60 22.0435 56.8393 14.4129 51.2132 8.7868C45.5871 3.1607 37.9565 0 30 0V0Z" fill="black"/>
<path fill-rule="evenodd" clip-rule="evenodd" d="M31.3276 17.4228C31.5022 17.597 31.6407 17.8039 31.7352 18.0317C31.8298 18.2595 31.8784 18.5037 31.8784 18.7503C31.8784 18.9969 31.8298 19.2411 31.7352 19.4689C31.6407 19.6967 31.5022 19.9036 31.3276 20.0778L21.4013 30.0003L31.3276 39.9228C31.5019 40.0971 31.6402 40.3041 31.7345 40.5319C31.8289 40.7597 31.8774 41.0038 31.8774 41.2503C31.8774 41.4969 31.8289 41.741 31.7345 41.9688C31.6402 42.1965 31.5019 42.4035 31.3276 42.5778C31.1532 42.7521 30.9463 42.8904 30.7185 42.9848C30.4907 43.0791 30.2466 43.1277 30.0001 43.1277C29.7535 43.1277 29.5094 43.0791 29.2816 42.9848C29.0539 42.8904 28.8469 42.7521 28.6726 42.5778L17.4226 31.3278C17.248 31.1536 17.1094 30.9467 17.0149 30.7189C16.9204 30.4911 16.8717 30.2469 16.8717 30.0003C16.8717 29.7537 16.9204 29.5095 17.0149 29.2817C17.1094 29.0539 17.248 28.847 17.4226 28.6728L28.6726 17.4228C28.8467 17.2482 29.0536 17.1097 29.2814 17.0151C29.5092 16.9206 29.7534 16.872 30.0001 16.872C30.2467 16.872 30.4909 16.9206 30.7187 17.0151C30.9465 17.1097 31.1534 17.2482 31.3276 17.4228V17.4228Z" fill="black"/>
<path fill-rule="evenodd" clip-rule="evenodd" d="M43.125 30C43.125 30.4973 42.9275 30.9742 42.5758 31.3258C42.2242 31.6775 41.7473 31.875 41.25 31.875L22.5 31.875C22.0027 31.875 21.5258 31.6775 21.1742 31.3258C20.8225 30.9742 20.625 30.4973 20.625 30C20.625 29.5027 20.8225 29.0258 21.1742 28.6742C21.5258 28.3225 22.0027 28.125 22.5 28.125L41.25 28.125C41.7473 28.125 42.2242 28.3225 42.5758 28.6742C42.9275 29.0258 43.125 29.5027 43.125 30Z" fill="black"/>
</g>
<defs>
<clipPath id="clip0">
<rect width="60" height="60" fill="white"/>
</clipPath>
</defs>
</svg>
