<svg width="60" height="60" viewBox="0 0 60 60" fill="none" xmlns="http://www.w3.org/2000/svg">
<g clip-path="url(#clip0)">
<path fill-rule="evenodd" clip-rule="evenodd" d="M-1.43051e-05 30C-1.43051e-05 22.0435 3.16069 14.4129 8.78678 8.78678C14.4129 3.16069 22.0435 -1.43051e-05 30 -1.43051e-05C37.9565 -1.43051e-05 45.5871 3.16069 51.2132 8.78678C56.8393 14.4129 60 22.0435 60 30C60 37.9565 56.8393 45.5871 51.2132 51.2132C45.5871 56.8393 37.9565 60 30 60C22.0435 60 14.4129 56.8393 8.78678 51.2132C3.16069 45.5871 -1.43051e-05 37.9565 -1.43051e-05 30V30ZM28.6725 20.0775C28.3204 19.7254 28.1226 19.2479 28.1226 18.75C28.1226 18.2521 28.3204 17.7746 28.6725 17.4225C29.0246 17.0704 29.5021 16.8726 30 16.8726C30.4979 16.8726 30.9754 17.0704 31.3275 17.4225L42.5775 28.6725C42.7521 28.8467 42.8906 29.0536 42.9852 29.2814C43.0797 29.5092 43.1283 29.7534 43.1283 30C43.1283 30.2466 43.0797 30.4908 42.9852 30.7186C42.8906 30.9464 42.7521 31.1533 42.5775 31.3275L31.3275 42.5775C31.1532 42.7518 30.9462 42.8901 30.7184 42.9845C30.4907 43.0788 30.2465 43.1274 30 43.1274C29.7535 43.1274 29.5093 43.0788 29.2816 42.9845C29.0538 42.8901 28.8468 42.7518 28.6725 42.5775C28.4982 42.4032 28.3599 42.1962 28.2655 41.9684C28.1712 41.7407 28.1226 41.4965 28.1226 41.25C28.1226 41.0035 28.1712 40.7593 28.2655 40.5316C28.3599 40.3038 28.4982 40.0968 28.6725 39.9225L36.7237 31.875L18.75 31.875C18.2527 31.875 17.7758 31.6774 17.4242 31.3258C17.0725 30.9742 16.875 30.4973 16.875 30C16.875 29.5027 17.0725 29.0258 17.4242 28.6742C17.7758 28.3225 18.2527 28.125 18.75 28.125L36.7237 28.125L28.6725 20.0775Z" fill="#4FF77E"/>
<path fill-rule="evenodd" clip-rule="evenodd" d="M30 56.25C36.9619 56.25 43.6387 53.4844 48.5616 48.5616C53.4844 43.6387 56.25 36.9619 56.25 30C56.25 23.0381 53.4844 16.3613 48.5616 11.4384C43.6387 6.51562 36.9619 3.75 30 3.75C23.0381 3.75 16.3613 6.51562 11.4384 11.4384C6.51562 16.3613 3.75 23.0381 3.75 30C3.75 36.9619 6.51562 43.6387 11.4384 48.5616C16.3613 53.4844 23.0381 56.25 30 56.25V56.25ZM30 60C37.9565 60 45.5871 56.8393 51.2132 51.2132C56.8393 45.5871 60 37.9565 60 30C60 22.0435 56.8393 14.4129 51.2132 8.7868C45.5871 3.16071 37.9565 0 30 0C22.0435 0 14.4129 3.16071 8.7868 8.7868C3.16071 14.4129 0 22.0435 0 30C0 37.9565 3.16071 45.5871 8.7868 51.2132C14.4129 56.8393 22.0435 60 30 60V60Z" fill="black"/>
<path fill-rule="evenodd" clip-rule="evenodd" d="M28.6724 42.5772C28.4978 42.403 28.3593 42.1961 28.2648 41.9683C28.1702 41.7405 28.1216 41.4963 28.1216 41.2497C28.1216 41.0031 28.1702 40.7589 28.2648 40.5311C28.3593 40.3033 28.4978 40.0964 28.6724 39.9222L38.5987 29.9997L28.6724 20.0772C28.4981 19.9029 28.3598 19.6959 28.2655 19.4681C28.1711 19.2403 28.1226 18.9962 28.1226 18.7497C28.1226 18.5031 28.1711 18.259 28.2655 18.0312C28.3598 17.8035 28.4981 17.5965 28.6724 17.4222C28.8468 17.2479 29.0537 17.1096 29.2815 17.0152C29.5093 16.9209 29.7534 16.8723 29.9999 16.8723C30.2465 16.8723 30.4906 16.9209 30.7184 17.0152C30.9461 17.1096 31.1531 17.2479 31.3274 17.4222L42.5774 28.6722C42.752 28.8464 42.8906 29.0533 42.9851 29.2811C43.0796 29.5089 43.1283 29.7531 43.1283 29.9997C43.1283 30.2463 43.0796 30.4905 42.9851 30.7183C42.8906 30.9461 42.752 31.153 42.5774 31.3272L31.3274 42.5772C31.1533 42.7518 30.9464 42.8903 30.7186 42.9849C30.4908 43.0794 30.2466 43.128 29.9999 43.128C29.7533 43.128 29.5091 43.0794 29.2813 42.9849C29.0535 42.8903 28.8466 42.7518 28.6724 42.5772V42.5772Z" fill="black"/>
<path fill-rule="evenodd" clip-rule="evenodd" d="M16.875 30C16.875 29.5027 17.0725 29.0258 17.4242 28.6742C17.7758 28.3225 18.2527 28.125 18.75 28.125H37.5C37.9973 28.125 38.4742 28.3225 38.8258 28.6742C39.1775 29.0258 39.375 29.5027 39.375 30C39.375 30.4973 39.1775 30.9742 38.8258 31.3258C38.4742 31.6775 37.9973 31.875 37.5 31.875H18.75C18.2527 31.875 17.7758 31.6775 17.4242 31.3258C17.0725 30.9742 16.875 30.4973 16.875 30Z" fill="black"/>
</g>
<defs>
<clipPath id="clip0">
<rect width="60" height="60" fill="white" transform="translate(60 60) rotate(180)"/>
</clipPath>
</defs>
</svg>
