<svg width="60" height="53" viewBox="0 0 60 53" fill="none" xmlns="http://www.w3.org/2000/svg">
<path d="M5.76495 14.3264C4.68146 7.35892 8.88122 3.1914 14.796 1.32072C17.6969 0.403309 22.3495 -0.359426 30.0091 0.208309C43.6431 1.21886 56.6161 12.8905 59.489 29.8484C52.2121 30.8767 50.6577 35.3815 45.7033 41.6491C40.6692 48.0176 32.7628 51.5963 26.9759 51.983C20.5393 52.4566 10.7661 47.2891 7.55928 40.9142C6.09925 38.0115 7.55173 34.3924 9.00967 32.539C13.9728 33.4565 20.1574 33.3318 24.0515 31.3035C25.4258 23.0933 22.2189 15.1246 5.76495 14.3263V14.3264ZM27.2898 7.25888C24.998 7.25888 23.1401 8.44939 23.1401 9.91809C23.1401 11.3868 24.9978 12.5774 27.2898 12.5774C29.5817 12.5774 31.4396 11.3868 31.4396 9.91809C31.4396 8.44939 29.5817 7.25888 27.2898 7.25888ZM27.2898 8.11942C25.7043 8.11942 24.419 8.92481 24.419 9.91809C24.419 10.9114 25.7043 11.7168 27.2899 11.7168C28.8753 11.7168 30.1607 10.9115 30.1607 9.91809C30.1607 8.92471 28.8753 8.11942 27.2898 8.11942Z" fill="#5F4C41"/>
<path d="M6.29082 15.1504C1.45618 16.3057 -1.22976 26.0237 1.72481 32.2756C1.77812 32.3582 1.87799 32.426 1.99328 32.3776C6.82791 30.4408 6.27749 22.3454 17.7867 23.3393C15.141 26.7287 12.3414 29.0791 7.32487 30.0416C6.79387 30.137 6.99474 30.4891 7.10489 30.5812C9.69241 32.7452 20.4156 32.9806 24.1255 30.7806C24.7113 23.2237 22.463 15.5513 6.29082 15.1504Z" fill="#5F4C41"/>
</svg>
